<?xml version="1.0" encoding="utf-8"?>
<!-- Generator: Adobe Illustrator 22.1.0, SVG Export Plug-In . SVG Version: 6.00 Build 0)  -->
<svg version="1.1" id="Layer_1" xmlns="http://www.w3.org/2000/svg" xmlns:xlink="http://www.w3.org/1999/xlink" x="0px" y="0px"
	 viewBox="0 0 58 52" style="enable-background:new 0 0 58 52;" xml:space="preserve">
<style type="text/css">
	.st0{fill:#598FBA;}
</style>
<g>
	<path class="st0" d="M34.7,1.9l-20.2,11l3.9,6.2l2.4-1.3v2.8L3.5,30.1l3.5,6.4l2.5-1.4v15h27.8v-4h11.4V17.8l2.5,1.4l3.4-6.4
		L34.7,1.9z M8.1,32.4l-0.6-1.1l15.8-8.6l15.9,8.6l-0.6,1.1l-15.2-8.3L8.1,32.4z M34.3,47.1H12.4V33.5l10.9-6l10.9,6V47.1z
		 M45.6,43.1h-8.4v-8l2.4,1.3l3.6-6.3L23.8,19.5v-3.3l10.9-6l10.9,6V43.1z M49.9,15.1L34.7,6.8l-15.3,8.3L18.8,14l16-8.7l15.8,8.6
		L49.9,15.1z"/>
	<path class="st0" d="M18,43.6h9.1v-9.1H18V43.6z M21,37.5h3.1v3.1H21V37.5z"/>
</g>
</svg>
