<?xml version="1.0" encoding="utf-8"?>
<!-- Generator: Adobe Illustrator 22.1.0, SVG Export Plug-In . SVG Version: 6.00 Build 0)  -->
<svg version="1.1" id="Layer_1" xmlns="http://www.w3.org/2000/svg" xmlns:xlink="http://www.w3.org/1999/xlink" x="0px" y="0px"
	 viewBox="0 0 58 52" style="enable-background:new 0 0 58 52;" xml:space="preserve">
<style type="text/css">
	.st0{fill:#598FBA;}
</style>
<g>
	<circle class="st0" cx="8.9" cy="24" r="2.5"/>
	<path class="st0" d="M13.9,11.7c1.4,0,2.5-1.1,2.5-2.5s-1.1-2.5-2.5-2.5c-1.4,0-2.5,1.1-2.5,2.5S12.5,11.7,13.9,11.7z"/>
	<path class="st0" d="M45.8,35c-1.4,0-2.5,1.1-2.5,2.5s1.1,2.5,2.5,2.5c1.4,0,2.5-1.1,2.5-2.5S47.2,35,45.8,35z"/>
	<path class="st0" d="M31.6,43.4c-1.4,0-2.5,1.1-2.5,2.5c0,1.4,1.1,2.5,2.5,2.5c1.4,0,2.5-1.1,2.5-2.5C34.2,44.5,33,43.4,31.6,43.4z
		"/>
	<path class="st0" d="M42.4,19L49,6L36,12.6L25.8,2.4l2.3,14.3l-12.9,6.6l9.8,1.5L6.5,43.3c0,0,0,0,0,0v0c-0.2,0.2-0.3,0.4-0.5,0.6
		c0,0,0,0.1-0.1,0.1c-0.1,0.2-0.2,0.3-0.3,0.5c0,0,0,0,0,0.1c-0.2,0.4-0.3,0.9-0.3,1.3c0,0.5,0.1,0.9,0.3,1.3c0,0,0,0,0,0.1
		c0.1,0.2,0.2,0.4,0.3,0.5c0,0,0,0.1,0.1,0.1c0.1,0.2,0.3,0.4,0.4,0.5c0,0,0,0,0,0c0.7,0.7,1.6,1.1,2.6,1.1c0,0,0,0,0,0
		c0.7,0,1.4-0.2,1.9-0.6c0.2-0.2,0.5-0.3,0.7-0.5v0c0,0,0,0,0,0l0,0l18.5-18.5l1.5,9.8l6.6-12.9l14.3,2.3L42.4,19z M10.4,44.6
		c0.5,0.5,0.6,1,0.6,1.3s-0.1,0.9-0.6,1.3c-0.1,0.1-0.2,0.2-0.4,0.3c-0.4,0.2-0.7,0.3-1,0.3c-0.3,0-0.9-0.1-1.3-0.6c0,0,0,0,0,0
		c-0.2-0.2-0.3-0.4-0.4-0.6c0,0,0-0.1,0-0.1c-0.2-0.4-0.2-0.9,0-1.4c0,0,0-0.1,0-0.1c0.1-0.2,0.2-0.4,0.4-0.6
		C8.5,43.8,9.7,43.8,10.4,44.6z M12.2,43.8c-0.1-0.2-0.3-0.4-0.5-0.6c-0.2-0.2-0.4-0.3-0.6-0.5l17.4-17.4l0.9,0.1l0.1,0.9L12.2,43.8
		z M36.6,23.6l-3.4,6.6l-1.2-7.3l-7.3-1.2l6.6-3.4L30.2,11l5.3,5.3l6.6-3.4l-3.4,6.6l5.3,5.3L36.6,23.6z"/>
</g>
</svg>
