<?xml version="1.0" encoding="utf-8"?>
<!-- Generator: Adobe Illustrator 22.1.0, SVG Export Plug-In . SVG Version: 6.00 Build 0)  -->
<svg version="1.1" id="Layer_1" xmlns="http://www.w3.org/2000/svg" xmlns:xlink="http://www.w3.org/1999/xlink" x="0px" y="0px"
	 viewBox="0 0 58 52" enable-background="new 0 0 58 52" xml:space="preserve">
<path fill="#598FBA" d="M29,6.9l3.3,10.2c0.9,2.7,3.4,4.5,6.2,4.5h10.7l-8.6,6.3c-2.3,1.7-3.2,4.6-2.4,7.3l3.3,10.2L32.8,39
	c-1.1-0.8-2.4-1.2-3.8-1.2c-1.4,0-2.7,0.4-3.8,1.2l-8.6,6.3l3.3-10.2c0.9-2.7-0.1-5.6-2.4-7.3l-8.6-6.3h10.7c2.8,0,5.3-1.8,6.2-4.5
	L29,6.9 M29,2.8c-1.2,0-2.5,0.7-2.9,2.1L22.5,16c-0.4,1.3-1.6,2.1-2.9,2.1H7.9c-3,0-4.2,3.8-1.8,5.6l9.4,6.8
	c1.1,0.8,1.5,2.2,1.1,3.4L13,45.1c-0.7,2.2,1,4.1,2.9,4.1c0.6,0,1.2-0.2,1.8-0.6l9.4-6.8c0.5-0.4,1.2-0.6,1.8-0.6
	c0.6,0,1.3,0.2,1.8,0.6l9.4,6.8c0.6,0.4,1.2,0.6,1.8,0.6c1.9,0,3.6-1.9,2.9-4.1L41.4,34c-0.4-1.3,0-2.7,1.1-3.4l9.4-6.8
	c2.4-1.8,1.2-5.6-1.8-5.6H38.5c-1.3,0-2.5-0.9-2.9-2.1L31.9,5C31.5,3.5,30.2,2.8,29,2.8L29,2.8z"/>
</svg>
