<?xml version="1.0" encoding="utf-8"?>
<!-- Generator: Adobe Illustrator 22.1.0, SVG Export Plug-In . SVG Version: 6.00 Build 0)  -->
<svg version="1.1" id="Layer_1" xmlns="http://www.w3.org/2000/svg" xmlns:xlink="http://www.w3.org/1999/xlink" x="0px" y="0px"
	 viewBox="0 0 58 52" style="enable-background:new 0 0 58 52;" xml:space="preserve">
<style type="text/css">
	.st0{fill:#598FBA;}
</style>
<g>
	<path class="st0" d="M31.3,36.8L20.8,18.6L16,25.9H8.4c2.6,4.4,6.9,8.4,10.4,11.6c6,5.5,10.2,8.9,10.2,8.9s3.6-3.4,9.4-8.7
		c3.6-3.3,8.1-7.4,10.9-11.7h-9.2L31.3,36.8z"/>
	<path class="st0" d="M39.6,5.6c-4.5,0-8.4,3.4-10.6,7c-2.2-3.5-6.1-7-10.6-7C11.5,5.6,6,11.2,6,18.1c0,1.7,0.4,3.3,1,4.9h7.5
		l6.5-10l10.8,18.7l7-8.6h12.2c0.7-1.6,1.1-3.2,1.1-4.9C52,11.2,46.5,5.6,39.6,5.6z"/>
</g>
</svg>
