<?xml version="1.0" encoding="utf-8"?>
<!-- Generator: Adobe Illustrator 22.1.0, SVG Export Plug-In . SVG Version: 6.00 Build 0)  -->
<svg version="1.1" id="Layer_1" xmlns="http://www.w3.org/2000/svg" xmlns:xlink="http://www.w3.org/1999/xlink" x="0px" y="0px"
	 viewBox="0 0 58 52" style="enable-background:new 0 0 58 52;" xml:space="preserve">
<style type="text/css">
	.st0{fill:#598FBA;}
</style>
<path class="st0" d="M43.9,34.9c0,0-1.6-1.3-1.7-4.6c-0.1-3.8,0-9.8,0-10.4c0-0.4,0.1-2.2-1-3.8c-0.6-1-4.1-9.1-6.2-14.1L35,1.8
	l-0.1-0.2c-0.2-0.2-1.3-1.4-2.7-1.3c-0.6,0-1.6,0.3-2.3,1.4c-1.5,2.1,0,8,0.7,10.4l1,3.4c-0.3,0-0.5,0.1-0.8,0.2
	C30,16,29.4,16.4,29,17c-0.4-0.6-1-1.1-1.6-1.3c-0.3-0.1-0.5-0.2-0.8-0.2l0.9-3.4c0.7-2.4,2.2-8.3,0.7-10.4
	c-0.8-1.1-1.7-1.4-2.3-1.4c-1.5-0.1-2.5,1.1-2.7,1.3L23,1.8L22.9,2c-2.1,4.9-5.6,13.1-6.2,14.1c-1,1.7-1,3.4-1,3.8
	c0,0.6,0.1,6.6,0,10.4c-0.1,3.2-1.6,4.6-1.7,4.6l-6.6,5.5l1.9,2.3l6.6-5.5c0.1-0.1,2.7-2.2,2.8-6.9c0.1-4,0-10.5,0-10.5l0-0.1
	c0,0-0.1-1.1,0.5-2.1c0.9-1.4,5.4-12,6.3-14.2c0,0,0.1-0.1,0.1-0.1c0,0,0,0,0.1,0.1c0.4,0.8-0.1,4.5-1.1,7.9l-2.3,8.3l-0.1,11.2l3,0
	L25.3,20l0.4-1.5c0.1,0,0.3,0,0.6,0.1c0.6,0.2,1.2,2.6,1.1,5.2c0,0.1,0.1,7.3,0,12.1c-0.1,4.1-3.1,6.5-3.2,6.6l-7.8,7l2,2.2l7.8-7
	c0.1-0.1,1.6-1.3,2.8-3.4c1.2,2.1,2.6,3.3,2.7,3.4l7.8,7l2-2.2l-7.9-7.1c0,0-3-2.5-3.1-6.6c-0.1-4.8,0-12,0-12.1
	c-0.1-2.6,0.6-5,1.1-5.2c0.3-0.1,0.5-0.1,0.6-0.1l0.4,1.5l0.1,10.8l3,0l-0.1-11.2l-2.3-8.3c-1-3.4-1.5-7.1-1.2-7.9
	c0,0,0.1-0.1,0.1-0.1c0,0,0.1,0.1,0.1,0.1c0.9,2.2,5.4,12.8,6.3,14.2c0.6,1,0.5,2.1,0.5,2.1l0,0.1c0,0.1-0.1,6.5,0,10.5
	c0.1,4.7,2.7,6.8,2.8,6.9l6.6,5.5l1.9-2.3L43.9,34.9z"/>
</svg>
