<?xml version="1.0" encoding="utf-8"?>
<!-- Generator: Adobe Illustrator 22.1.0, SVG Export Plug-In . SVG Version: 6.00 Build 0)  -->
<svg version="1.1" id="Layer_1" xmlns="http://www.w3.org/2000/svg" xmlns:xlink="http://www.w3.org/1999/xlink" x="0px" y="0px"
	 viewBox="0 0 58 52" style="enable-background:new 0 0 58 52;" xml:space="preserve">
<style type="text/css">
	.st0{fill:#598FBA;}
</style>
<g>
	<path class="st0" d="M19.6,16.3c2.8,0,5.1-2.3,5.1-5.1c0-2.8-2.3-5.1-5.1-5.1c-2.8,0-5.1,2.3-5.1,5.1C14.5,14,16.7,16.3,19.6,16.3z
		"/>
	<path class="st0" d="M22.3,20.6c-0.3-1.2-1-2-2.3-2h-1h-1c-1.2,0-1.9,0.8-2.3,2l-4.7,15.6c-0.5,1.8,0.8,3.5,2.6,3.5h1.9l1.4,4.4
		c0.3,1.1,1.3,1.8,2.5,1.8c1.1,0,2.1-0.7,2.5-1.8l1.4-4.4h0.9c1.8,0,3.1-1.7,2.6-3.5L22.3,20.6z"/>
	<path class="st0" d="M38.7,16.3c2.8,0,5.1-2.3,5.1-5.1c0-2.8-2.3-5.1-5.1-5.1s-5.1,2.3-5.1,5.1C33.6,14,35.9,16.3,38.7,16.3z"/>
	<path class="st0" d="M43.8,18.9h-9.8c-1.7,0-3.2,1.4-3.2,3.2v12.7c0,0.3,0.3,0.6,0.6,0.6h3.1v9.5c0,0.6,0.5,1.1,1.1,1.1h6.3
		c0.6,0,1.1-0.5,1.1-1.1v-9.5h3.3c0.3,0,0.6-0.3,0.6-0.6V22C46.9,20.3,45.5,18.9,43.8,18.9z"/>
</g>
</svg>
