<?xml version="1.0" encoding="utf-8"?>
<!-- Generator: Adobe Illustrator 22.1.0, SVG Export Plug-In . SVG Version: 6.00 Build 0)  -->
<svg version="1.1" id="Layer_1" xmlns="http://www.w3.org/2000/svg" xmlns:xlink="http://www.w3.org/1999/xlink" x="0px" y="0px"
	 viewBox="0 0 58 52" style="enable-background:new 0 0 58 52;" xml:space="preserve">
<style type="text/css">
	.st0{fill:#598FBA;}
</style>
<g>
	<path class="st0" d="M16,16.3c2.8,0,5.1-2.3,5.1-5.1C21.1,8.3,18.8,6,16,6s-5.1,2.3-5.1,5.1C10.9,14,13.2,16.3,16,16.3z"/>
	<path class="st0" d="M18.2,35.4C18.1,35,18,34.5,18,34.1c0-0.1,0-0.2,0-0.2V27c0-3.2,1.3-6,3.5-8.1c-0.1,0-0.2,0-0.4,0h-9.8
		c-1.7,0-3.2,1.4-3.2,3.2v12.7c0,0.3,0.3,0.6,0.6,0.6h3.1v9.5c0,0.6,0.5,1.1,1.1,1.1h6.3c0.6,0,1.1-0.5,1.1-1.1v-7.1
		C19.3,37.3,18.6,36.4,18.2,35.4z"/>
	<path class="st0" d="M41.7,16.3c2.8,0,5.1-2.3,5.1-5.1c0-2.8-2.3-5.1-5.1-5.1c-2.8,0-5.1,2.3-5.1,5.1C36.6,14,38.9,16.3,41.7,16.3z
		"/>
	<path class="st0" d="M46.8,18.9h-9.8c-0.1,0-0.2,0-0.3,0c2.1,2,3.5,4.9,3.5,8.1v6.8c0,0.1,0,0.2,0,0.2c0,0.5-0.1,0.9-0.3,1.4
		c-0.4,1.1-1.2,2-2.3,2.5v7c0,0.6,0.5,1.1,1.1,1.1h6.3c0.6,0,1.1-0.5,1.1-1.1v-9.5h3.3c0.3,0,0.6-0.3,0.6-0.6V22
		C49.9,20.3,48.5,18.9,46.8,18.9z"/>
	<path class="st0" d="M27.3,16c0.5,0.2,1,0.3,1.6,0.3c0.6,0,1.1-0.1,1.7-0.3c2-0.7,3.5-2.6,3.5-4.8C34,8.3,31.7,6,28.9,6
		c-2.8,0-5.1,2.3-5.1,5.1C23.8,13.4,25.3,15.4,27.3,16z"/>
	<path class="st0" d="M36.9,25.2c-0.4-1.8-1.4-3.4-2.8-4.6c-0.6-0.5-1.2-0.9-1.9-1.2c-0.5-0.2-1-0.4-1.5-0.5
		c-0.5-0.1-1.1-0.2-1.6-0.2c-0.3,0-0.6,0-0.8,0S27.7,19,27.4,19c-1.3,0.3-2.5,0.8-3.5,1.7c-1.8,1.5-3,3.7-3,6.3v6.8
		c0,0.4,0.2,0.8,0.5,1.1c0.3,0.3,0.7,0.5,1.1,0.5h1.1h0h0h1.1v7.8c0,1.5,1.2,2.7,2.7,2.7h3c0.8,0,1.4-0.3,1.9-0.8
		c0.2-0.2,0.4-0.5,0.6-0.9c0.1-0.3,0.2-0.7,0.2-1.1v-7.8h1.2h0h1.1c0.9,0,1.6-0.7,1.6-1.6V27c0-0.3,0-0.6-0.1-0.9
		C37,25.7,37,25.5,36.9,25.2z"/>
</g>
</svg>
