<?xml version="1.0" encoding="utf-8"?>
<!-- Generator: Adobe Illustrator 22.1.0, SVG Export Plug-In . SVG Version: 6.00 Build 0)  -->
<svg version="1.1" id="Layer_1" xmlns="http://www.w3.org/2000/svg" xmlns:xlink="http://www.w3.org/1999/xlink" x="0px" y="0px"
	 viewBox="0 0 58 52" style="enable-background:new 0 0 58 52;" xml:space="preserve">
<style type="text/css">
	.st0{fill:#598FBA;}
</style>
<g>
	<polygon class="st0" points="31.7,39.5 31.7,39.5 31.7,39.5 	"/>
	<path class="st0" d="M28.7,27.4c-0.3-0.3-0.5-0.6-0.8-0.8c-0.4-0.4-0.8-0.7-1.2-1.1c-0.1-0.1-0.2-0.2-0.3-0.3
		c-0.4-0.3-0.7-0.6-1.1-0.9c0,0-0.1-0.1-0.1-0.1c-0.4-0.3-0.8-0.6-1.2-0.8c-0.1-0.1-0.2-0.1-0.3-0.2c-0.3-0.2-0.7-0.4-1-0.6
		c-0.1,0-0.1-0.1-0.2-0.1c-0.4-0.2-0.8-0.4-1.1-0.5c-0.1,0-0.2-0.1-0.3-0.1c-0.3-0.1-0.6-0.2-0.9-0.3c-0.1,0-0.1,0-0.2-0.1
		c-0.3-0.1-0.7-0.2-1-0.2c-0.1,0-0.2,0-0.2,0c-0.3,0-0.5-0.1-0.8-0.1c0,0-0.1,0-0.1,0c0,0,0,0-0.1,0c-0.1,0-0.3,0-0.4,0
		c-0.1,0-0.2,0-0.3,0c-0.1,0-0.2,0.1-0.4,0.1c-0.1,0-0.2,0-0.2,0.1c-0.1,0-0.2,0.1-0.3,0.2c-0.1,0-0.1,0.1-0.2,0.1
		c-0.2,0.1-0.3,0.2-0.4,0.3c0,0,0,0,0,0c-0.3,0.3-0.4,0.6-0.6,0.9l0,0L14.9,23l0,0L5.8,48.7l25.8-9.2l0,0l0.1,0c0,0,0,0,0,0
		c0,0,0,0,0,0c0.1,0,0.2-0.1,0.3-0.1c0.1,0,0.1-0.1,0.2-0.1c0.2-0.1,0.3-0.2,0.5-0.4c2-2,0.3-6.9-3.7-11.3
		C28.8,27.5,28.8,27.4,28.7,27.4z M30.4,36.7c0,0-0.1,0-0.1,0c-0.5,0-1.1-0.2-1.8-0.4c-1.7-0.6-3.9-2.1-6.1-4.2
		c-2.3-2.3-3.6-4.6-4.2-6.1c-0.3-0.9-0.5-1.6-0.4-1.9c0,0,0.1,0,0.1,0c1.6,0,4.9,1.6,7.9,4.6C29.5,32.3,30.5,35.7,30.4,36.7z"/>
	<path class="st0" d="M47.8,25.1c-1.8-0.3-3.2-1.7-3.5-3.5l-0.9-4.4l-0.9,4.4c-0.3,1.8-1.7,3.2-3.5,3.5L34.6,26l4.4,0.9
		c1.8,0.3,3.2,1.7,3.5,3.5l0.9,4.4l0.9-4.4c0.3-1.8,1.7-3.2,3.5-3.5l4.4-0.9L47.8,25.1z"/>
	<path class="st0" d="M23.9,16.5l0.9,4.4l0.9-4.4c0.3-1.8,1.7-3.2,3.5-3.5l4.4-0.9l-4.4-0.9c-1.8-0.3-3.2-1.7-3.5-3.5l-0.9-4.4
		l-0.9,4.4c-0.3,1.8-1.7,3.2-3.5,3.5L16,12.1l4.4,0.9C22.2,13.3,23.6,14.7,23.9,16.5z"/>
	<circle class="st0" cx="43.7" cy="9.9" r="2.7"/>
	<path class="st0" d="M36.4,18.7c0-1.5-1.2-2.7-2.7-2.7S31,17.2,31,18.7c0,1.5,1.2,2.7,2.7,2.7S36.4,20.1,36.4,18.7z"/>
</g>
</svg>
