<?xml version="1.0" encoding="utf-8"?>
<!-- Generator: Adobe Illustrator 22.1.0, SVG Export Plug-In . SVG Version: 6.00 Build 0)  -->
<svg version="1.1" id="Layer_1" xmlns="http://www.w3.org/2000/svg" xmlns:xlink="http://www.w3.org/1999/xlink" x="0px" y="0px"
	 viewBox="0 0 58 52" style="enable-background:new 0 0 58 52;" xml:space="preserve">
<style type="text/css">
	.st0{fill:#598FBA;}
</style>
<path class="st0" d="M47.5,13.2c-1.5,0-2.7,1.2-2.7,2.7c0,0.7,0.3,1.3,0.7,1.7L36,25.8l-6.2-13c0.9-0.4,1.4-1.3,1.4-2.4
	c0-1.5-1.2-2.7-2.7-2.7C27.2,7.8,26,9,26,10.4c0,1.1,0.7,2,1.6,2.4l-6,12.6l-9.1-7.9c0.4-0.5,0.7-1.1,0.7-1.7c0-1.5-1.2-2.7-2.7-2.7
	s-2.7,1.2-2.7,2.7c0,1.5,1.2,2.7,2.7,2.7c0.2,0,0.3,0,0.5,0l3.5,19.8l0,0c0,0,0,0,0,0c0,0,0,0,0,0c0,0.4,0.1,0.8,0.3,1.2
	c0,0,0,0.1,0.1,0.1c0.2,0.4,0.5,0.7,0.8,1c0.4,0.4,0.8,0.7,1.3,1c0.5,0.3,1.1,0.6,1.8,0.9c2.6,1.1,6.3,1.8,10.3,1.8
	c4,0,7.7-0.7,10.3-1.8c0.5-0.2,0.9-0.4,1.3-0.6c0.5-0.3,0.9-0.5,1.2-0.8c1.1-0.8,1.7-1.8,1.7-2.8c0,0,0,0,0,0c0,0,0,0,0,0
	c0,0,0,0,0,0c0-0.1,0-0.3-0.1-0.4c0,0.1,0.1,0.3,0.1,0.4l3.5-19.7c0.2,0,0.3,0,0.5,0c1.5,0,2.7-1.2,2.7-2.7
	C50.2,14.4,49,13.2,47.5,13.2z M29,41.2c-6.9,0-10.8-2-11.5-3c0.7-1,4.6-3,11.5-3c6.9,0,10.8,2,11.5,3C39.8,39.2,35.9,41.2,29,41.2z
	"/>
</svg>
