<?xml version="1.0" encoding="utf-8"?>
<!-- Generator: Adobe Illustrator 22.1.0, SVG Export Plug-In . SVG Version: 6.00 Build 0)  -->
<svg version="1.1" id="Layer_1" xmlns="http://www.w3.org/2000/svg" xmlns:xlink="http://www.w3.org/1999/xlink" x="0px" y="0px"
	 viewBox="0 0 58 52" style="enable-background:new 0 0 58 52;" xml:space="preserve">
<style type="text/css">
	.st0{fill:#598FBA;}
</style>
<path class="st0" d="M54.4,18l3.5-4.4h-3.3l3.1-3.7h-19H27.6H12.7L0.6,24.6h3L0.1,29h3.5l-3.5,4.4h3.5l-3.5,4.4h3.5l-3.5,4.4h19.1
	h11.1h15.3l12.4-15.4h-3.5l3.5-4.4h-3.5l3.5-4.4H54.4z M24.6,12.9L18,21.6l0,0H6.9l7.2-8.7H24.6z M51.3,12.9l-0.6,0.7h-0.3v0.3
	l-6.3,7.7H32.8l6.6-8.7H51.3z M28.8,34.8v3v1.4h-8.1v-1.4v-3v-1.4v-3V29v-3v-1.4v-1.5V23l1.1-1.4l6.6-8.7h7.3l-6.6,8.7l0,0l-0.3,0.9
	v0.6v1.5V26v3v1.4v3V34.8z M31.8,29h13.4l-1.1,1.4H31.8V29z M44.1,26H31.8v-1.4h13.4L44.1,26z M31.8,33.4h13.4l-1.1,1.4H31.8V33.4z
	 M17.7,24.6V26H6.3l1.1-1.4H17.7z M17.7,29v1.4H6.3L7.4,29H17.7z M17.7,33.4v1.4H6.3l1.1-1.4H17.7z M7.4,37.8h10.3v1.4H6.3L7.4,37.8
	z M44.1,39.1H31.8v-1.4h13.4L44.1,39.1z"/>
</svg>
