<?xml version="1.0" encoding="utf-8"?>
<!-- Generator: Adobe Illustrator 22.1.0, SVG Export Plug-In . SVG Version: 6.00 Build 0)  -->
<svg version="1.1" id="Layer_1" xmlns="http://www.w3.org/2000/svg" xmlns:xlink="http://www.w3.org/1999/xlink" x="0px" y="0px"
	 viewBox="0 0 58 52" style="enable-background:new 0 0 58 52;" xml:space="preserve">
<style type="text/css">
	.st0{fill:#598FBA;}
</style>
<g>
	<path class="st0" d="M23.6,22.1c4,3.7,6.8,5.9,6.8,5.9s2.4-2.3,6.3-5.8s9.1-8.2,9.1-13.1c0-4.6-3.7-8.3-8.3-8.3
		c-3,0-5.6,2.3-7.1,4.7c-1.5-2.4-4.1-4.7-7.1-4.7c-4.6,0-8.3,3.7-8.3,8.3C15.1,14.3,20,18.8,23.6,22.1z"/>
	<path class="st0" d="M54.9,29.2c-1.5-1.3-4.2-1.6-6.4,0.5c-1.6,1.5-5.1,4.7-6.7,6.2c-1.1-0.5-2.1-0.6-2.2-0.6
		c-2.6-0.1-10.1-0.9-12.7-3c-3.5-2.8-10.5-6.5-15.4-5.2c-4,1.1-9.8,2.1-9.8,2.1l0.5,3c0.2,0,6-1,10.1-2.1c3.3-0.9,9,1.6,12.7,4.6
		c3.9,3.1,13.4,3.6,14.4,3.7c0.2,0,1,0.1,1.5,0.6c0.2,0.2,0.4,0.5,0.4,1.1c0,0.1,0,0.1-0.1,0.2c-0.7,0.6-3,0.8-4.4,0.7l-0.1,0
		l-0.1,0c-0.1,0-7.1,0.4-9.4,0.4c-1.1,0-4.8-2.5-7.5-4.8l-1.9,2.3c1.5,1.3,6.7,5.5,9.4,5.5c2.2,0,8.5-0.4,9.4-0.4
		c1,0.1,4.8,0.2,6.6-1.5c0.7-0.7,1.1-1.5,1-2.5c0-0.7-0.2-1.3-0.4-1.9c1.7-1.5,5.1-4.6,6.7-6.1c1-0.9,1.8-0.8,2.3-0.4
		c0.4,0.4,0.4,1,0,1.5c-1.5,1.9-7.7,10.2-10.4,13.7c-0.7,0.9-1.7,1.4-2.9,1.4H25.2c-0.6,0-1.2-0.1-1.7-0.4l-9.8-5.1
		c-0.9-0.5-2-0.8-3.1-0.8H2v3h8.7c0.6,0,1.2,0.1,1.7,0.4l9.8,5.1c0.9,0.5,2,0.8,3.1,0.8h14.5c2.1,0,4-1,5.3-2.6
		c2.6-3.5,8.9-11.8,10.3-13.7C56.9,32.8,56.3,30.5,54.9,29.2z"/>
</g>
</svg>
