<?xml version="1.0" encoding="utf-8"?>
<!-- Generator: Adobe Illustrator 22.1.0, SVG Export Plug-In . SVG Version: 6.00 Build 0)  -->
<svg version="1.1" id="Layer_1" xmlns="http://www.w3.org/2000/svg" xmlns:xlink="http://www.w3.org/1999/xlink" x="0px" y="0px"
	 viewBox="0 0 72 72" style="enable-background:new 0 0 72 72;" xml:space="preserve">
<style type="text/css">
	.st0{fill:#FFFFFF;}
	.st1{fill:#598FBA;}
</style>
<g>
	<path class="st1" d="M34.9,54L10,34l24.9-20v11.6l0.5,0c0.1,0,0.2,0,0.2,0c7.8,0,13.8,2,17.8,6c3.7,3.7,5.6,8.9,5.6,15.5v6
		l-2.8-5.3c-0.2-0.3-4.2-7.5-16.1-7.5h-5.2V54z M14.8,34l17.1,13.7V37.3h8.2c7.8,0,12.7,2.8,15.6,5.3c-0.6-3.7-2.1-6.7-4.3-8.9
		c-5.2-5.2-13.2-5.1-15.9-5.1l-3.6,0v-8.3L14.8,34z"/>
	<g>
		<path class="st1" d="M36,71.1C16.6,71.1,0.9,55.4,0.9,36S16.6,0.9,36,0.9S71.1,16.6,71.1,36S55.4,71.1,36,71.1z M36,3.9
			C18.3,3.9,3.9,18.3,3.9,36S18.3,68.1,36,68.1S68.1,53.7,68.1,36S53.7,3.9,36,3.9z"/>
	</g>
</g>
</svg>
