<?xml version="1.0" encoding="utf-8"?>
<!-- Generator: Adobe Illustrator 22.1.0, SVG Export Plug-In . SVG Version: 6.00 Build 0)  -->
<svg version="1.1" id="Layer_1" xmlns="http://www.w3.org/2000/svg" xmlns:xlink="http://www.w3.org/1999/xlink" x="0px" y="0px"
	 viewBox="0 0 30 40" enable-background="new 0 0 30 40" xml:space="preserve">
<g>
	<g>
		<path fill="none" stroke="#003670" stroke-width="1.7895" stroke-miterlimit="10" d="M1.9,28.3c0-0.5,0-1.1,0-1.6
			c0.1,0,0.1-0.1,0.2-0.1c0.9-0.9,1.8-1.8,2.7-2.7C4.9,23.7,5,23.6,5,23.5c0-2.7,0-5.4,0-8.1c0-0.5,0-1.1,0.1-1.6
			c0.3-1.8,1-3.4,2.1-4.8c1.4-1.7,3.2-2.8,5.3-3.4c0.1,0,0.2-0.1,0.2-0.2c0-0.3,0-0.6,0-0.9c0-0.4,0.1-0.9,0.4-1.2
			c0.3-0.5,0.8-0.9,1.4-1c0.2-0.1,0.7-0.1,1.1,0c1,0.3,1.7,1.2,1.7,2.3c0,0.3,0,0.6,0,0.9c0,0.1,0,0.2,0.2,0.2
			c0.6,0.2,1.3,0.4,1.9,0.7c1.8,0.8,3.2,2.1,4.3,3.8c1,1.6,1.4,3.3,1.4,5.2c0,2.7,0,5.5,0,8.2c0,0.1,0,0.2,0.1,0.3
			c0.5,0.5,1,1,1.5,1.5c0.5,0.5,0.9,0.9,1.4,1.4c0,0.5,0,1.1,0,1.6C28,28.3,6.1,28.3,1.9,28.3z"/>
	</g>
	<circle fill="none" stroke="#003670" stroke-width="1.7895" stroke-miterlimit="10" cx="15.4" cy="34.6" r="3.3"/>
</g>
</svg>
