<?xml version="1.0" encoding="utf-8"?>
<!-- Generator: Adobe Illustrator 22.1.0, SVG Export Plug-In . SVG Version: 6.00 Build 0)  -->
<svg version="1.1" id="Layer_1" xmlns="http://www.w3.org/2000/svg" xmlns:xlink="http://www.w3.org/1999/xlink" x="0px" y="0px"
	 viewBox="0 0 63.8 67.4" enable-background="new 0 0 63.8 67.4" xml:space="preserve">
<g>
	<rect x="1.4" y="7.4" fill="none" stroke="#598FBA" stroke-width="3" stroke-miterlimit="10" width="60.7" height="58.5"/>
	<line fill="none" stroke="#598FBA" stroke-width="3" stroke-miterlimit="10" x1="1.4" y1="22.2" x2="62" y2="22.2"/>
	<line fill="none" stroke="#598FBA" stroke-width="3" stroke-miterlimit="10" x1="12.6" y1="14.2" x2="12.6" y2="0"/>
	<line fill="none" stroke="#598FBA" stroke-width="3" stroke-miterlimit="10" x1="49.9" y1="14.2" x2="49.9" y2="0"/>
	<rect x="21.4" y="31.6" fill="none" stroke="#598FBA" stroke-width="3" stroke-miterlimit="10" width="1.9" height="1.9"/>
	<rect x="40.7" y="31.6" fill="none" stroke="#598FBA" stroke-width="3" stroke-miterlimit="10" width="1.9" height="1.9"/>
	<rect x="31.1" y="31.6" fill="none" stroke="#598FBA" stroke-width="3" stroke-miterlimit="10" width="1.9" height="1.9"/>
	<rect x="50.3" y="31.6" fill="none" stroke="#598FBA" stroke-width="3" stroke-miterlimit="10" width="1.9" height="1.9"/>
	<rect x="11.8" y="42.9" fill="none" stroke="#598FBA" stroke-width="3" stroke-miterlimit="10" width="1.9" height="1.9"/>
	<rect x="21.4" y="42.9" fill="none" stroke="#598FBA" stroke-width="3" stroke-miterlimit="10" width="1.9" height="1.9"/>
	<rect x="40.7" y="42.9" fill="none" stroke="#598FBA" stroke-width="3" stroke-miterlimit="10" width="1.9" height="1.9"/>
	<rect x="31.1" y="42.9" fill="none" stroke="#598FBA" stroke-width="3" stroke-miterlimit="10" width="1.9" height="1.9"/>
	<rect x="50.3" y="42.9" fill="none" stroke="#598FBA" stroke-width="3" stroke-miterlimit="10" width="1.9" height="1.9"/>
	<rect x="11.8" y="54.1" fill="none" stroke="#598FBA" stroke-width="3" stroke-miterlimit="10" width="1.9" height="1.9"/>
	<rect x="21.4" y="54.1" fill="none" stroke="#598FBA" stroke-width="3" stroke-miterlimit="10" width="1.9" height="1.9"/>
	<rect x="40.7" y="54.1" fill="none" stroke="#598FBA" stroke-width="3" stroke-miterlimit="10" width="1.9" height="1.9"/>
	<rect x="31.1" y="54.1" fill="none" stroke="#598FBA" stroke-width="3" stroke-miterlimit="10" width="1.9" height="1.9"/>
</g>
</svg>
