<?xml version="1.0" encoding="utf-8"?>
<!-- Generator: Adobe Illustrator 22.1.0, SVG Export Plug-In . SVG Version: 6.00 Build 0)  -->
<svg version="1.1" id="Layer_1" xmlns="http://www.w3.org/2000/svg" xmlns:xlink="http://www.w3.org/1999/xlink" x="0px" y="0px"
	 viewBox="0 0 80 32" enable-background="new 0 0 80 32" xml:space="preserve">
<g>
	<g>
		<path fill="#9FFF00" d="M12,15.5c0-4.1,3.1-6.9,7-6.9c2.7,0,4.4,1.4,5.4,3l-2,1c-0.6-1.1-1.9-1.9-3.4-1.9c-2.6,0-4.6,2-4.6,4.8
			s2,4.8,4.6,4.8c1.4,0,2.7-0.8,3.4-1.9l2,1c-1,1.6-2.7,3-5.4,3C15,22.4,12,19.6,12,15.5z"/>
		<path fill="#9FFF00" d="M32.5,22.2l-3-4l-1.3,1.4v2.6h-2.1v-9.7h2.1v4.7l4.3-4.7h2.6l-4,4.4l4.1,5.3H32.5z"/>
		<path fill="#9FFF00" d="M36,17.4c0-2.8,1.9-5.1,5-5.1s5,2.3,5,5.1s-1.9,5.1-5,5.1C37.9,22.4,36,20.1,36,17.4z M43.7,17.4
			c0-1.7-1-3.2-2.8-3.2s-2.8,1.5-2.8,3.2s1,3.2,2.8,3.2S43.7,19.1,43.7,17.4z"/>
		<path fill="#9FFF00" d="M50.1,20.9v5H48V12.5h2.1v1.3c0.7-1,1.8-1.6,3.1-1.6c2.5,0,4.3,1.9,4.3,5.1s-1.8,5.1-4.3,5.1
			C52,22.4,50.9,21.9,50.1,20.9z M55.3,17.4c0-1.9-1.1-3.2-2.7-3.2c-1,0-2,0.6-2.5,1.3v3.8c0.5,0.7,1.5,1.3,2.5,1.3
			C54.3,20.6,55.3,19.2,55.3,17.4z"/>
		<path fill="#9FFF00" d="M59,17.4c0-2.8,1.9-5.1,5-5.1s5,2.3,5,5.1s-1.9,5.1-5,5.1C60.9,22.4,59,20.1,59,17.4z M66.7,17.4
			c0-1.7-1-3.2-2.8-3.2s-2.8,1.5-2.8,3.2s1,3.2,2.8,3.2S66.7,19.1,66.7,17.4z"/>
	</g>
	
		<path fill="none" stroke="#9FFF00" stroke-width="1.7249" stroke-linecap="round" stroke-linejoin="round" stroke-miterlimit="10" d="
		M15.4,30.4h49.2c8,0,14.4-6.5,14.4-14.4l0,0c0-7.9-6.4-14.4-14.4-14.4H15.4C7.4,1.6,1,8.1,1,16l0,0C1,23.9,7.4,30.4,15.4,30.4z"/>
</g>
</svg>
