<?xml version="1.0" encoding="utf-8"?>
<!-- Generator: Adobe Illustrator 22.1.0, SVG Export Plug-In . SVG Version: 6.00 Build 0)  -->
<svg version="1.1" id="Layer_1" xmlns="http://www.w3.org/2000/svg" xmlns:xlink="http://www.w3.org/1999/xlink" x="0px" y="0px"
	 viewBox="0 0 230 90" enable-background="new 0 0 230 90" xml:space="preserve">
<g>
	<g>
		<g>
			<path fill="#FFFFFF" d="M58.8,44.1C58.8,35.7,65,30,72.9,30c4.8,0,8.2,2.3,10.4,5.4L80.4,37c-1.6-2.3-4.4-4-7.5-4
				c-6,0-10.5,4.6-10.5,11.1c0,6.5,4.6,11.1,10.5,11.1c3.1,0,5.9-1.6,7.5-4l2.9,1.6c-2.3,3.1-5.6,5.4-10.4,5.4
				C65,58.3,58.8,52.5,58.8,44.1z"/>
			<path fill="#FFFFFF" d="M91.2,57.8V40.7h-5.7V38H100v2.7h-5.8v17.1H91.2z"/>
			<path fill="#FFFFFF" d="M116.4,57.8v-2.3c-1.6,1.8-3.9,2.7-6.6,2.7c-3.4,0-6.9-2.3-6.9-6.6c0-4.4,3.6-6.5,6.9-6.5
				c2.7,0,5,0.9,6.6,2.7v-3.6c0-2.7-2.1-4.2-5-4.2c-2.4,0-4.3,0.9-6.1,2.7l-1.4-2.1c2.1-2.2,4.7-3.3,7.9-3.3c4.2,0,7.7,1.9,7.7,6.7
				v13.6H116.4z M116.4,53.6v-3.7c-1.2-1.6-3.3-2.5-5.5-2.5c-2.9,0-4.9,1.8-4.9,4.3c0,2.5,2,4.3,4.9,4.3
				C113.1,56.1,115.2,55.2,116.4,53.6z"/>
			<path fill="#FFFFFF" d="M128.7,54.8v10.5h-3.1V38h3.1v3c1.4-2,3.9-3.4,6.7-3.4c5.2,0,8.8,3.9,8.8,10.4c0,6.4-3.6,10.4-8.8,10.4
				C132.7,58.3,130.3,57,128.7,54.8z M141,47.9c0-4.4-2.4-7.6-6.4-7.6c-2.4,0-4.8,1.4-5.9,3.2v8.9c1.1,1.7,3.5,3.2,5.9,3.2
				C138.6,55.5,141,52.2,141,47.9z"/>
			<path fill="#FFFFFF" d="M152.7,57.8V40.7h-5.7V38h14.6v2.7h-5.8v17.1H152.7z"/>
			<path fill="#FFFFFF" d="M164.9,55.9c0-1.2,1-2.3,2.3-2.3s2.3,1,2.3,2.3c0,1.2-1,2.3-2.3,2.3S164.9,57.1,164.9,55.9z M165.9,50.1
				l-0.7-19.7h3.9l-0.7,19.7H165.9z"/>
		</g>
	</g>
	<path fill="none" stroke="#FFFFFF" stroke-width="2.2777" stroke-miterlimit="10" d="M212.4,87.5H17.6C9.6,87.5,3.1,81,3.1,73V17
		c0-8,6.5-14.5,14.5-14.5h194.7c8,0,14.5,6.5,14.5,14.5v56C226.9,81,220.4,87.5,212.4,87.5z"/>
</g>
</svg>
